<svg xmlns="http://www.w3.org/2000/svg" viewBox="0 0 600 150" width="600" height="150">
  <g transform="translate(20,10)">
    <path d="M48,19 C55.36,50.28 62.72,57.64 94,65 C62.72,72.36 55.36,79.72 48,111 C40.64,79.72 33.28,72.36 2,65 C33.28,57.64 40.64,50.28 48,19 Z" fill="#171819"/>
    <path d="M100,9 C102.4,19.2 104.8,21.6 115,24 C104.8,26.4 102.4,28.8 100,39 C97.6,28.8 95.2,26.4 85,24 C95.2,21.6 97.6,19.2 100,9 Z" fill="#8F97A3"/>
  </g>
  <g transform="translate(158,4)">
    <text x="0" y="80" font-family="Helvetica Neue, Helvetica, Arial, sans-serif" font-size="46" font-weight="700" letter-spacing="-0.5" fill="#171819">Pure Platinum</text>
    <line x1="2" y1="102" x2="420" y2="102" stroke="#C9CDD3" stroke-width="1.5"/>
    <text x="2" y="130" font-family="Helvetica Neue, Helvetica, Arial, sans-serif" font-size="16" font-weight="500" letter-spacing="7" fill="#8F97A3">CLEANING</text>
  </g>
</svg>